<svg width="88" height="66" viewBox="0 0 88 66" fill="none" xmlns="http://www.w3.org/2000/svg">
<rect x="2" y="2" width="84" height="62" rx="22" fill="#E9FF00"/>
<path fill-rule="evenodd" clip-rule="evenodd" d="M34.0514 12.9114C33.8296 13.4127 33.5965 14.069 33.5334 14.3702C33.4703 14.6711 33.2539 15.0468 33.0526 15.2046C32.3713 15.7391 32.2725 16.4057 32.2693 20.4862C32.2666 23.8554 32.2339 24.3461 31.9862 24.7235C31.4709 25.5088 30.1868 25.4925 29.4167 24.6908C29.1735 24.4375 28.3208 23.2461 27.5218 22.0433C26.7229 20.8403 25.8817 19.7218 25.6525 19.5576C25.4232 19.3934 24.9766 19.2591 24.6597 19.2591C24.1383 19.2591 24.0552 19.1967 23.7834 18.6014C23.6183 18.2395 23.3667 17.801 23.2243 17.6266C22.9709 17.316 22.9672 17.3176 23.0432 17.7059C23.0858 17.9238 23.2685 19.1949 23.4494 20.5306C23.8164 23.2426 24.0649 24.0318 25.1307 25.8684C27.509 29.9676 27.5792 30.1775 27.7468 33.6858C27.8477 35.7932 27.9563 36.6651 28.214 37.4377C28.7921 39.1707 30.4444 41.2207 32.1931 42.3751C32.771 42.7566 33.04 42.8268 33.9225 42.8271C36.779 42.8284 38.9758 40.2357 39.9152 35.7551C40.9795 30.6791 41.1329 30.2117 42.9405 26.5322C44.3682 23.6265 44.6528 22.9229 44.708 22.1628C44.7661 21.3597 44.7251 21.1995 44.3462 20.7501L43.9187 20.2434L44.2499 19.7088C44.6854 19.0059 44.6721 18.7171 44.2236 19.1406C44.0269 19.3262 43.3883 19.7197 42.8042 20.0152C41.4934 20.678 41.0564 21.2362 40.59 22.8448C39.9516 25.0463 38.7523 25.8691 37.596 24.8986C36.6968 24.1438 36.5999 23.7673 36.4597 20.4808C36.2852 16.3964 36.0212 15.4414 34.9217 14.9211L34.3853 14.6672L34.4967 13.3336C34.5578 12.6001 34.5736 12 34.5315 12C34.4893 12 34.2734 12.41 34.0514 12.9114ZM54.3908 24.0061C54.169 24.5073 53.9351 25.1671 53.8712 25.4722C53.8071 25.7773 53.6138 26.1254 53.4415 26.2458C52.7096 26.7571 52.607 27.3715 52.5904 31.3366C52.582 33.3851 52.5641 35.1893 52.5507 35.3457C52.5065 35.8598 51.7962 36.4085 51.1749 36.4085C50.1237 36.4085 49.7629 36.0663 48.005 33.4008C46.2614 30.7573 45.8753 30.3861 44.8672 30.385C44.3965 30.3845 44.3131 30.3124 44.053 29.6816C43.8936 29.2948 43.6554 28.8894 43.5237 28.7803C43.3158 28.6082 43.2971 28.654 43.381 29.1271C43.4342 29.427 43.6155 30.6798 43.7841 31.911C44.144 34.5407 44.3674 35.1852 45.7418 37.5604C47.8046 41.1253 48.0676 41.9508 48.077 44.888C48.0873 48.1578 48.7312 49.854 50.7783 52.0042C52.163 53.4584 53.1328 53.9976 54.3679 54C56.0162 54.0032 58.0149 52.5371 58.9965 50.6047C59.6542 49.3101 59.9821 48.2125 60.5617 45.3635C61.2928 41.7707 61.3465 41.6182 63.3032 37.5978C64.9139 34.2884 65 34.0605 65 33.1063C65 32.2411 64.9477 32.0588 64.625 31.7981L64.2498 31.4952L64.5853 30.7836C64.9973 29.9093 65.0022 29.8286 64.621 30.2089C64.4562 30.3732 63.8108 30.7753 63.1865 31.1025C61.8115 31.8232 61.3459 32.3445 61.0208 33.5265C60.8845 34.0218 60.6186 34.772 60.43 35.1933C59.8993 36.3779 58.8512 36.7465 57.9113 36.079C57.0502 35.4675 56.9319 35.012 56.8035 31.8121C56.6386 27.7013 56.2917 26.455 55.1996 26.0498L54.7107 25.8684L54.8085 24.4816C54.8623 23.7189 54.8812 23.0948 54.8503 23.0948C54.8195 23.0948 54.6128 23.5049 54.3908 24.0061Z" fill="black"/>
<rect x="2" y="2" width="84" height="62" rx="22" stroke="black" stroke-width="4"/>
</svg>
