<svg width="219" height="560" viewBox="0 0 219 560" fill="none" xmlns="http://www.w3.org/2000/svg">
<g filter="url(#filter0_i_220_199)">
<path fill-rule="evenodd" clip-rule="evenodd" d="M156.063 0.232125C156.063 3.06026 148.723 22.8414 144.651 30.9881C137.547 45.2018 130.449 53.8561 123.522 56.7524C120.429 58.045 120.023 58.6384 119.886 62.0719C119.436 73.3874 106.328 92.2907 71.8938 131.28C54.658 150.796 46.5726 161.322 39.3766 173.612C35.327 180.527 35.1852 181.064 34.5498 191.881C33.7155 206.095 31.5631 218 29.394 220.402C28.1409 221.79 26.3599 222.28 22.5664 222.28C12.5621 222.28 8.59619 229.009 9.60097 244.276C9.92998 249.287 10.4994 255.072 10.8648 257.134C11.2313 259.196 11.1367 260.81 10.655 260.721C8.6356 260.346 7.43283 261.014 2.43657 265.289C-3.17537 270.091 -17.9268 291.665 -18.9542 296.575C-19.3246 298.341 -21.8109 301.156 -26.1304 304.699C-34.933 311.917 -42.7121 320.268 -44.3227 324.226C-45.0437 325.998 -45.9519 329.658 -46.341 332.361C-47.4443 340.025 -52.4278 348.555 -62.376 359.807L-66.5626 364.543L-66.5685 376.606C-66.5744 391.134 -67.5309 395.021 -72.4158 400.377C-79.2335 407.851 -80.124 410.771 -81.248 429.344C-81.972 441.298 -82.3581 443.027 -88.1641 460.268C-91.5468 470.313 -95.1295 482.797 -96.1254 488.011C-98.1842 498.796 -97.5814 497.258 -110.689 525.131C-121.394 547.896 -129.847 562.653 -130.433 559.602C-130.992 556.694 -128.804 543.162 -124.591 523.461C-116.319 484.779 -115.714 470.982 -121.67 456.923C-123.259 453.172 -123.251 452.904 -121.507 451.155C-119.918 449.562 -119.691 447.797 -119.785 437.758C-119.844 431.397 -119.798 425.083 -119.681 423.726C-119.566 422.368 -119.815 418.721 -120.237 415.621C-121.066 409.517 -121.235 409.822 -113.846 404.076L-111.383 402.161L-114.227 393.724C-117.475 384.087 -117.092 381.665 -111.416 375.964C-108.17 372.704 -95.7639 353.909 -92.4275 347.196C-89.0339 340.369 -86.3496 331.703 -80.3811 308.297C-76.5423 293.246 -73.2896 282.808 -70.7333 277.341C-67.3181 270.035 -66.0493 268.419 -59.6198 263.192C-50.8891 256.094 -46.6848 248.898 -38.888 227.711C-28.4128 199.242 -21.5971 189.206 9.72903 156.119C17.185 148.244 27.0948 137.419 31.7512 132.065C39.354 123.321 40.2307 121.903 40.3578 118.149C40.5912 111.2 46.215 104.129 71.413 79.096C89.7924 60.8385 96.8781 53.0325 104.645 42.4863C119.528 22.2805 127.653 14.1802 140.74 6.49767C147.397 2.59121 156.063 -0.952848 156.063 0.232125ZM34.8995 20.2977C34.8995 20.5455 33.6514 22.8779 32.1255 25.4819C30.6007 28.0859 27.0012 35.3261 24.1268 41.5719C9.39508 73.5898 1.0289 86.3263 -7.02304 88.9895C-9.68668 89.8714 -10.3605 90.5468 -9.92999 91.9066C-8.91142 95.1228 -13.2388 104.15 -20.0013 112.918C-23.6678 117.671 -32.1649 128.316 -38.8841 136.572C-58.2437 160.362 -63.038 168.714 -66.5428 184.756C-71.5835 207.822 -78.0445 219.304 -99.8086 243.868C-108.387 253.55 -109.99 255.854 -108.148 255.854C-107.723 255.854 -106.559 257.24 -105.561 258.932C-104.195 261.25 -103.89 263.139 -104.323 266.585C-105.147 273.124 -111.437 288.899 -119.064 303.549C-122.676 310.487 -126.569 319.368 -127.714 323.286C-135.012 348.256 -138.19 358.135 -141.896 367.377C-145.979 377.562 -157.799 402 -164.851 414.838C-169.067 422.514 -182.371 443.946 -185.079 447.425L-187 449.894L-186.346 443.871C-185.67 437.651 -181.075 419.653 -176.412 404.964C-165.276 369.881 -162.004 354.057 -163.94 344.66C-164.992 339.555 -164.935 338.528 -163.481 336.303C-162.052 334.117 -161.94 332.445 -162.667 324.188C-163.13 318.92 -163.528 310.793 -163.55 306.129C-163.589 298.347 -163.356 297.308 -160.739 293.524C-157.914 289.44 -157.892 289.3 -158.527 279.292L-159.169 269.185L-155.852 266.93C-152.406 264.586 -142.943 255.242 -139.592 250.874C-137.126 247.66 -132.007 237.572 -130.117 232.206C-128.192 226.737 -126.096 214.168 -124.228 196.895C-123.394 189.179 -122.711 182.474 -122.711 181.994C-122.711 181.514 -119.055 178.053 -114.585 174.304C-94.835 157.737 -88.305 151.182 -87.2638 146.883C-84.0781 133.728 -72.6148 119.121 -52.8573 103.042C-37.3966 90.4599 -36.0057 89.0034 -21.4967 70.2087C-4.41754 48.0833 11.4519 32.1583 23.5239 25.0316C31.3572 20.4073 34.8995 18.933 34.8995 20.2977ZM187.585 109.63C187.585 110.129 184.87 117.351 181.552 125.676C169.268 156.493 156.904 176.307 147.793 179.779C146.287 180.353 145.276 182.068 144.381 185.573C142.588 192.585 137.701 200.253 128.418 210.62C113.641 227.123 102.738 243.447 95.0045 260.649C91.8059 267.762 90.5401 269.536 87.4135 271.288C81.0184 274.87 79.8186 282.949 83.7264 296.108C84.279 297.972 83.2329 299.452 77.4397 304.995C71.6702 310.516 69.9157 312.989 67.1181 319.547C59.3568 337.738 52.6741 347.55 45.5156 351.26C42.852 352.641 42.8185 352.756 44.3897 355.159C45.6968 357.159 45.8998 359.2 45.4427 365.747C44.7758 375.288 42.0718 384.343 33.8671 404.51C30.5613 412.634 25.8802 424.138 23.4658 430.074C20.7106 436.845 18.1593 445.491 16.6166 453.28C13.2467 470.297 10.3368 477.739 1.21803 492.659C-1.0033 496.293 -6.58765 506.377 -11.1918 515.067C-22.7684 536.917 -34.4966 555.934 -35.6698 554.759C-36.578 553.848 -32.888 531.241 -29.2521 515.436C-27.082 506 -24.1514 492.281 -22.7398 484.949C-18.5326 463.083 -17.9928 461.009 -15.8759 458.542C-14.1362 456.514 -13.4693 456.323 -11.181 457.195C-9.71327 457.754 -8.31743 457.894 -8.07805 457.506C-7.83868 457.117 -8.75775 453.468 -10.1191 449.397C-13.0369 440.678 -15.8808 424.837 -16.7683 412.37C-17.4825 402.319 -17.0698 401.125 -9.64136 391.751L-5.4223 386.427L-7.33038 383.105C-12.0085 374.958 -10.9298 369.236 -3.94864 365.157C-1.27419 363.595 1.97556 361.359 3.27289 360.187C8.15883 355.776 13.0359 342.666 22.4079 308.739C26.4841 293.986 26.6702 292.782 25.3621 289.645C24.5888 287.79 24.0982 284.067 24.2617 281.297C24.639 274.896 27.4563 272.52 35.457 271.855L41.0217 271.392L43.3691 266.339C44.6596 263.56 45.7205 260.608 45.7254 259.781C45.7313 258.953 49.8587 255.079 54.8994 251.171C63.5689 244.448 64.0428 243.889 63.6842 240.812C63.0587 235.438 69.8488 226.639 89.031 207.962C122.346 175.525 125.545 172.035 137.839 154.697C155.353 130 166.684 118.712 181.396 111.307C187.077 108.448 187.585 108.31 187.585 109.63ZM215.73 241.292C209.104 259.128 206.099 264.011 194.615 275.604C183.717 286.605 180.289 292.109 181.27 297.026C181.985 300.61 180.226 302.251 174.901 302.967L171.005 303.491L171.543 308.714L172.081 313.938L160.379 325.109C136.409 347.988 135.03 349.754 135.03 357.565C135.03 360.009 135.756 363.397 136.642 365.094L138.255 368.18L133.368 371.225C130.354 373.103 128.481 374.973 128.481 376.104C128.481 379.185 122.006 398.156 118.631 404.964C112.804 416.716 111.878 420.908 113.322 428.993C115.428 440.781 115.437 440.75 108.645 445.81C105.319 448.286 102.209 450.444 101.731 450.603C101.255 450.763 99.2915 455.556 97.3686 461.256C92.5625 475.505 87.9159 484.861 82.2616 491.672C76.6772 498.399 74.4342 502.567 69.7542 514.916C64.817 527.943 58.3392 540.469 57.2015 539.188C56.7651 538.697 58.7973 519.543 60.4975 508.128C61.1427 503.798 63.2064 493.59 65.083 485.443C66.9605 477.296 70.0507 463.743 71.9499 455.325C76.1611 436.657 76.9501 435.183 82.2547 436.081C84.3825 436.441 86.1231 436.352 86.1231 435.883C86.1231 435.414 84.08 431.74 81.5829 427.718L77.0437 420.405L78.8336 417.375C81.0618 413.602 82.2252 394.062 80.8372 383.733C80.0423 377.819 80.2954 374.682 82.5867 362.008C84.4435 351.743 85.7694 346.808 86.9072 345.933C87.8095 345.238 92.1034 342.842 96.4476 340.609C107.161 335.1 111.27 332.146 117.688 325.338C124.296 318.328 127.535 313.186 129.009 307.37C130.003 303.444 130.57 302.823 134.538 301.313C143.296 297.98 151.662 290.321 178.497 261.064C184.064 254.995 192.227 247.135 196.639 243.597C203.931 237.748 216.481 230.18 218.888 230.18C219.422 230.18 218 235.181 215.73 241.292Z" fill="#E9FF00"/>
</g>
<defs>
<filter id="filter0_i_220_199" x="-187" y="0" width="406" height="560" filterUnits="userSpaceOnUse" color-interpolation-filters="sRGB">
<feFlood flood-opacity="0" result="BackgroundImageFix"/>
<feBlend mode="normal" in="SourceGraphic" in2="BackgroundImageFix" result="shape"/>
<feColorMatrix in="SourceAlpha" type="matrix" values="0 0 0 0 0 0 0 0 0 0 0 0 0 0 0 0 0 0 127 0" result="hardAlpha"/>
<feOffset/>
<feGaussianBlur stdDeviation="6.5"/>
<feComposite in2="hardAlpha" operator="arithmetic" k2="-1" k3="1"/>
<feColorMatrix type="matrix" values="0 0 0 0 0 0 0 0 0 0 0 0 0 0 0 0 0 0 1 0"/>
<feBlend mode="normal" in2="shape" result="effect1_innerShadow_220_199"/>
</filter>
</defs>
</svg>
