<svg width="156" height="45" viewBox="0 0 156 45" fill="none" xmlns="http://www.w3.org/2000/svg">
<rect width="156" height="45" fill="#E9FF00"/>
<path d="M45.8906 31V15H56.4844V17.7891H49.2734V21.6016H55.7813V24.3906H49.2734V31H45.8906ZM64.4835 31.2344C63.3793 31.2344 62.4262 31.0365 61.6241 30.6406C60.8221 30.2448 60.2049 29.7083 59.7726 29.0312C59.3455 28.349 59.132 27.5885 59.132 26.75C59.132 26.125 59.257 25.5703 59.507 25.0859C59.757 24.6016 60.1059 24.1562 60.5538 23.75C61.0017 23.3385 61.5226 22.9297 62.1163 22.5234L65.2179 20.4844C65.6189 20.2292 65.9132 19.9609 66.1007 19.6797C66.2882 19.3932 66.382 19.0833 66.382 18.75C66.382 18.4323 66.2543 18.138 65.9991 17.8672C65.7439 17.5964 65.382 17.4635 64.9132 17.4688C64.6007 17.4688 64.3299 17.5391 64.1007 17.6797C63.8715 17.8151 63.6918 17.9948 63.5616 18.2187C63.4366 18.4375 63.3741 18.6823 63.3741 18.9531C63.3741 19.2865 63.4679 19.625 63.6554 19.9687C63.8429 20.3125 64.0929 20.6771 64.4054 21.0625C64.7179 21.4427 65.059 21.8542 65.4288 22.2969L73.0148 31H69.546L63.2179 23.9531C62.8012 23.4792 62.3846 22.9844 61.9679 22.4687C61.5564 21.9479 61.2127 21.3958 60.9366 20.8125C60.6606 20.224 60.5226 19.5859 60.5226 18.8984C60.5226 18.1224 60.7023 17.4245 61.0616 16.8047C61.4262 16.1849 61.9366 15.6953 62.5929 15.3359C63.2491 14.9714 64.0148 14.7891 64.8898 14.7891C65.7439 14.7891 66.4809 14.9635 67.1007 15.3125C67.7257 15.6562 68.2049 16.1146 68.5382 16.6875C68.8767 17.2552 69.046 17.8802 69.046 18.5625C69.046 19.3177 68.8585 20.0026 68.4835 20.6172C68.1137 21.2266 67.5929 21.7734 66.921 22.2578L63.6554 24.6094C63.2127 24.9323 62.8846 25.263 62.671 25.6016C62.4627 25.9349 62.3585 26.2552 62.3585 26.5625C62.3585 26.9427 62.4523 27.2839 62.6398 27.5859C62.8273 27.888 63.0929 28.1276 63.4366 28.3047C63.7804 28.4766 64.184 28.5625 64.6476 28.5625C65.2101 28.5625 65.7648 28.4349 66.3116 28.1797C66.8637 27.9193 67.3637 27.5521 67.8116 27.0781C68.2648 26.599 68.6267 26.0313 68.8976 25.375C69.1684 24.7187 69.3038 23.9922 69.3038 23.1953H72.0616C72.0616 24.1745 71.9549 25.0573 71.7413 25.8438C71.5278 26.625 71.2309 27.3073 70.8507 27.8906C70.4705 28.4687 70.0356 28.9427 69.546 29.3125C69.3898 29.4115 69.2387 29.5052 69.0929 29.5938C68.9471 29.6823 68.796 29.776 68.6398 29.875C68.046 30.3542 67.382 30.7005 66.6476 30.9141C65.9184 31.1276 65.1971 31.2344 64.4835 31.2344ZM75.344 15H79.5159L83.9221 25.75H84.1096L88.5159 15H92.6877V31H89.4065V20.5859H89.2737L85.133 30.9219H82.8987L78.758 20.5469H78.6252V31H75.344V15ZM102.027 31H96.3548V15H102.074C103.683 15 105.068 15.3203 106.23 15.9609C107.391 16.5964 108.285 17.5104 108.91 18.7031C109.54 19.8958 109.855 21.3229 109.855 22.9844C109.855 24.651 109.54 26.0833 108.91 27.2812C108.285 28.4792 107.386 29.3984 106.214 30.0391C105.048 30.6797 103.652 31 102.027 31ZM99.7377 28.1016H101.886C102.886 28.1016 103.727 27.9245 104.41 27.5703C105.097 27.2109 105.613 26.6562 105.956 25.9062C106.305 25.151 106.48 24.1771 106.48 22.9844C106.48 21.8021 106.305 20.8359 105.956 20.0859C105.613 19.3359 105.1 18.7839 104.417 18.4297C103.735 18.0755 102.894 17.8984 101.894 17.8984H99.7377V28.1016Z" fill="black"/>
</svg>
